<svg width="128" height="128" viewBox="0 0 128 128" fill="none" xmlns="http://www.w3.org/2000/svg">
<path opacity="0.1" d="M64 124C97.1371 124 124 97.1371 124 64C124 30.8629 97.1371 4 64 4C30.8629 4 4 30.8629 4 64C4 97.1371 30.8629 124 64 124Z" fill="url(#paint0_linear_3091_40535)"/>
<path d="M90.7273 22H37.2727C28.8378 22 22 28.8378 22 37.2727V90.7273C22 99.1622 28.8378 106 37.2727 106H90.7273C99.1622 106 106 99.1622 106 90.7273V37.2727C106 28.8378 99.1622 22 90.7273 22Z" fill="url(#paint1_linear_3091_40535)"/>
<path d="M35 46L28 54L35 62" stroke="#FBFBFB" stroke-width="2.5" stroke-linecap="round" stroke-linejoin="round"/>
<path d="M93 46L100 54L93 62" stroke="#FBFBFB" stroke-width="2.5" stroke-linecap="round" stroke-linejoin="round"/>
<path opacity="0.9" d="M54 43H42C40.8954 43 40 43.8954 40 45V61C40 62.1046 40.8954 63 42 63H54C55.1046 63 56 62.1046 56 61V45C56 43.8954 55.1046 43 54 43Z" fill="#FBFBFB"/>
<path d="M54 45H42V47H54V45Z" fill="url(#paint2_linear_3091_40535)"/>
<path opacity="0.7" d="M50 49H42V50.5H50V49Z" fill="url(#paint3_linear_3091_40535)"/>
<path opacity="0.7" d="M52 52H42V53.5H52V52Z" fill="url(#paint4_linear_3091_40535)"/>
<path opacity="0.7" d="M48 55H42V56.5H48V55Z" fill="url(#paint5_linear_3091_40535)"/>
<path d="M45.9329 69.1818H47.1488V73.2386C47.1488 73.6136 47.0645 73.9394 46.896 74.2159C46.7293 74.4924 46.4973 74.7055 46.1999 74.8551C45.9026 75.0047 45.5569 75.0795 45.163 75.0795C44.8126 75.0795 44.4944 75.018 44.2085 74.8949C43.9244 74.7699 43.699 74.5805 43.5323 74.3267C43.3656 74.071 43.2833 73.75 43.2852 73.3636H44.5096C44.5134 73.517 44.5446 73.6487 44.6033 73.7585C44.6639 73.8665 44.7463 73.9498 44.8505 74.0085C44.9566 74.0653 45.0816 74.0938 45.2255 74.0938C45.377 74.0938 45.5049 74.0616 45.609 73.9972C45.7151 73.9309 45.7956 73.8343 45.8505 73.7074C45.9054 73.5805 45.9329 73.4242 45.9329 73.2386V69.1818ZM51.3221 70.8551C51.2994 70.6259 51.2018 70.4479 51.0295 70.321C50.8571 70.1941 50.6232 70.1307 50.3278 70.1307C50.127 70.1307 49.9575 70.1591 49.8192 70.2159C49.681 70.2708 49.5749 70.3475 49.5011 70.446C49.4291 70.5445 49.3931 70.6562 49.3931 70.7812C49.3893 70.8854 49.4111 70.9763 49.4585 71.054C49.5077 71.1316 49.5749 71.1989 49.6602 71.2557C49.7454 71.3106 49.8439 71.3589 49.9556 71.4006C50.0674 71.4403 50.1867 71.4744 50.3136 71.5028L50.8363 71.6278C51.0901 71.6847 51.323 71.7604 51.5352 71.8551C51.7473 71.9498 51.931 72.0663 52.0863 72.2045C52.2416 72.3428 52.3619 72.5057 52.4471 72.6932C52.5342 72.8807 52.5787 73.0956 52.5806 73.3381C52.5787 73.6941 52.4878 74.0028 52.3079 74.2642C52.1299 74.5237 51.8723 74.7254 51.5352 74.8693C51.1999 75.0114 50.7956 75.0824 50.3221 75.0824C49.8524 75.0824 49.4433 75.0104 49.0948 74.8665C48.7482 74.7225 48.4774 74.5095 48.2823 74.2273C48.0891 73.9432 47.9878 73.5919 47.9783 73.1733H49.1687C49.1819 73.3684 49.2378 73.5312 49.3363 73.6619C49.4367 73.7907 49.5702 73.8883 49.7369 73.9545C49.9054 74.0189 50.0958 74.0511 50.3079 74.0511C50.5162 74.0511 50.6971 74.0208 50.8505 73.9602C51.0058 73.8996 51.1261 73.8153 51.2113 73.7074C51.2965 73.5994 51.3391 73.4754 51.3391 73.3352C51.3391 73.2045 51.3003 73.0947 51.2227 73.0057C51.1469 72.9167 51.0352 72.8409 50.8874 72.7784C50.7416 72.7159 50.5626 72.6591 50.3505 72.608L49.717 72.4489C49.2264 72.3295 48.8391 72.143 48.555 71.8892C48.271 71.6354 48.1299 71.2936 48.1317 70.8636C48.1299 70.5114 48.2236 70.2036 48.413 69.9403C48.6043 69.6771 48.8666 69.4716 49.1999 69.3239C49.5333 69.1761 49.9121 69.1023 50.3363 69.1023C50.7681 69.1023 51.145 69.1761 51.467 69.3239C51.7908 69.4716 52.0427 69.6771 52.2227 69.9403C52.4026 70.2036 52.4954 70.5085 52.5011 70.8551H51.3221Z" fill="#FBFBFB"/>
<path opacity="0.9" d="M86 43H74C72.8954 43 72 43.8954 72 45V61C72 62.1046 72.8954 63 74 63H86C87.1046 63 88 62.1046 88 61V45C88 43.8954 87.1046 43 86 43Z" fill="#FBFBFB"/>
<path d="M86 45H74V47H86V45Z" fill="url(#paint6_linear_3091_40535)"/>
<path opacity="0.7" d="M82 49H74V50.5H82V49Z" fill="url(#paint7_linear_3091_40535)"/>
<path opacity="0.7" d="M84 52H74V53.5H84V52Z" fill="url(#paint8_linear_3091_40535)"/>
<path opacity="0.7" d="M80 55H74V56.5H80V55Z" fill="url(#paint9_linear_3091_40535)"/>
<path d="M77.7156 71.6914H76.6268C76.6069 71.5505 76.5663 71.4254 76.505 71.3161C76.4437 71.205 76.3649 71.1106 76.2688 71.0327C76.1727 70.9548 76.0617 70.8951 75.9357 70.8537C75.8114 70.8123 75.6764 70.7915 75.5305 70.7915C75.267 70.7915 75.0375 70.857 74.842 70.9879C74.6464 71.1172 74.4948 71.3061 74.3871 71.5547C74.2794 71.8016 74.2255 72.1016 74.2255 72.4545C74.2255 72.8175 74.2794 73.1224 74.3871 73.3693C74.4964 73.6162 74.6489 73.8027 74.8445 73.9286C75.04 74.0546 75.2662 74.1175 75.5231 74.1175C75.6673 74.1175 75.8007 74.0985 75.9233 74.0604C76.0476 74.0223 76.1578 73.9667 76.2539 73.8938C76.35 73.8192 76.4296 73.7289 76.4925 73.6229C76.5572 73.5168 76.6019 73.3958 76.6268 73.2599L77.7156 73.2649C77.6874 73.4986 77.617 73.724 77.5043 73.9411C77.3932 74.1565 77.2433 74.3496 77.0543 74.5202C76.8671 74.6893 76.6433 74.8235 76.3832 74.9229C76.1246 75.0207 75.8321 75.0696 75.5057 75.0696C75.0516 75.0696 74.6456 74.9669 74.2876 74.7614C73.9313 74.5559 73.6496 74.2584 73.4425 73.869C73.237 73.4795 73.1342 73.008 73.1342 72.4545C73.1342 71.8994 73.2386 71.4271 73.4474 71.0376C73.6563 70.6482 73.9396 70.3516 74.2976 70.1477C74.6555 69.9422 75.0582 69.8395 75.5057 69.8395C75.8007 69.8395 76.0741 69.8809 76.326 69.9638C76.5795 70.0466 76.8041 70.1676 76.9996 70.3267C77.1952 70.4841 77.3543 70.6772 77.4769 70.9059C77.6012 71.1346 77.6808 71.3964 77.7156 71.6914ZM81.2491 71.3732C81.2292 71.1727 81.1439 71.0169 80.9931 70.9059C80.8423 70.7949 80.6376 70.7393 80.3791 70.7393C80.2034 70.7393 80.0551 70.7642 79.9341 70.8139C79.8132 70.862 79.7203 70.9291 79.6557 71.0153C79.5927 71.1014 79.5613 71.1992 79.5613 71.3086C79.5579 71.3997 79.577 71.4793 79.6184 71.5472C79.6615 71.6152 79.7203 71.674 79.7949 71.7237C79.8695 71.7718 79.9557 71.814 80.0534 71.8505C80.1512 71.8853 80.2556 71.9151 80.3667 71.94L80.824 72.0494C81.0461 72.0991 81.2499 72.1654 81.4355 72.2482C81.6212 72.3311 81.7819 72.433 81.9178 72.554C82.0537 72.675 82.1589 72.8175 82.2335 72.9815C82.3097 73.1456 82.3487 73.3337 82.3503 73.5458C82.3487 73.8574 82.2691 74.1275 82.1117 74.3562C81.9559 74.5832 81.7305 74.7597 81.4355 74.8857C81.1422 75.0099 80.7884 75.0721 80.3741 75.0721C79.9631 75.0721 79.6052 75.0091 79.3002 74.8832C78.997 74.7572 78.76 74.5708 78.5893 74.3239C78.4203 74.0753 78.3316 73.7679 78.3233 73.4016H79.3649C79.3765 73.5723 79.4254 73.7148 79.5115 73.8292C79.5994 73.9419 79.7162 74.0272 79.862 74.0852C80.0095 74.1416 80.1761 74.1697 80.3617 74.1697C80.544 74.1697 80.7022 74.1432 80.8365 74.0902C80.9724 74.0372 81.0776 73.9634 81.1522 73.869C81.2267 73.7745 81.264 73.666 81.264 73.5433C81.264 73.429 81.2301 73.3329 81.1621 73.255C81.0958 73.1771 80.998 73.1108 80.8688 73.0561C80.7412 73.0014 80.5846 72.9517 80.399 72.907L79.8446 72.7678C79.4154 72.6634 79.0765 72.5001 78.8279 72.2781C78.5794 72.056 78.4559 71.7569 78.4576 71.3807C78.4559 71.0724 78.5379 70.8031 78.7037 70.5728C78.871 70.3424 79.1006 70.1626 79.3922 70.0334C79.6839 69.9041 80.0153 69.8395 80.3865 69.8395C80.7644 69.8395 81.0942 69.9041 81.3759 70.0334C81.6593 70.1626 81.8797 70.3424 82.0371 70.5728C82.1945 70.8031 82.2757 71.07 82.2807 71.3732H81.2491ZM85.836 71.3732C85.8161 71.1727 85.7308 71.0169 85.58 70.9059C85.4292 70.7949 85.2245 70.7393 84.966 70.7393C84.7903 70.7393 84.642 70.7642 84.521 70.8139C84.4001 70.862 84.3073 70.9291 84.2426 71.0153C84.1797 71.1014 84.1482 71.1992 84.1482 71.3086C84.1449 71.3997 84.1639 71.4793 84.2053 71.5472C84.2484 71.6152 84.3073 71.674 84.3818 71.7237C84.4564 71.7718 84.5426 71.814 84.6404 71.8505C84.7381 71.8853 84.8425 71.9151 84.9536 71.94L85.411 72.0494C85.633 72.0991 85.8369 72.1654 86.0225 72.2482C86.2081 72.3311 86.3688 72.433 86.5047 72.554C86.6406 72.675 86.7458 72.8175 86.8204 72.9815C86.8966 73.1456 86.9356 73.3337 86.9372 73.5458C86.9356 73.8574 86.856 74.1275 86.6986 74.3562C86.5428 74.5832 86.3174 74.7597 86.0225 74.8857C85.7291 75.0099 85.3753 75.0721 84.961 75.0721C84.55 75.0721 84.1921 75.0091 83.8872 74.8832C83.5839 74.7572 83.3469 74.5708 83.1762 74.3239C83.0072 74.0753 82.9185 73.7679 82.9102 73.4016H83.9518C83.9634 73.5723 84.0123 73.7148 84.0985 73.8292C84.1863 73.9419 84.3031 74.0272 84.449 74.0852C84.5964 74.1416 84.763 74.1697 84.9486 74.1697C85.1309 74.1697 85.2892 74.1432 85.4234 74.0902C85.5593 74.0372 85.6645 73.9634 85.7391 73.869C85.8137 73.7745 85.8509 73.666 85.8509 73.5433C85.8509 73.429 85.817 73.3329 85.749 73.255C85.6827 73.1771 85.585 73.1108 85.4557 73.0561C85.3281 73.0014 85.1715 72.9517 84.9859 72.907L84.4316 72.7678C84.0023 72.6634 83.6634 72.5001 83.4149 72.2781C83.1663 72.056 83.0428 71.7569 83.0445 71.3807C83.0428 71.0724 83.1249 70.8031 83.2906 70.5728C83.4579 70.3424 83.6875 70.1626 83.9791 70.0334C84.2708 69.9041 84.6022 69.8395 84.9735 69.8395C85.3513 69.8395 85.6811 69.9041 85.9628 70.0334C86.2462 70.1626 86.4666 70.3424 86.624 70.5728C86.7815 70.8031 86.8627 71.07 86.8676 71.3732H85.836Z" fill="#FBFBFB"/>
<path d="M65 51L69 54L65 57" stroke="#FBFBFB" stroke-width="2" stroke-linecap="round" stroke-linejoin="round"/>
<path d="M59 54H69" stroke="#FBFBFB" stroke-width="2" stroke-linecap="round"/>
<path d="M77.3571 83H51.6429C46.3173 83 42 86.5817 42 91C42 95.4183 46.3173 99 51.6429 99H77.3571C82.6827 99 87 95.4183 87 91C87 86.5817 82.6827 83 77.3571 83Z" fill="url(#paint10_linear_3091_40535)"/>
<path d="M49.3729 94V88.1818H51.7024C52.1304 88.1818 52.4875 88.2453 52.7734 88.3722C53.0594 88.4991 53.2744 88.6752 53.4183 88.9006C53.5623 89.1241 53.6342 89.3816 53.6342 89.6733C53.6342 89.9006 53.5888 90.1004 53.4979 90.2727C53.407 90.4432 53.282 90.5833 53.1229 90.6932C52.9657 90.8011 52.7857 90.8778 52.5831 90.9233V90.9801C52.8047 90.9896 53.0121 91.0521 53.2053 91.1676C53.4003 91.2831 53.5585 91.4451 53.6797 91.6534C53.8009 91.8598 53.8615 92.1061 53.8615 92.392C53.8615 92.7008 53.7848 92.9763 53.6314 93.2188C53.4799 93.4593 53.2554 93.6496 52.9581 93.7898C52.6607 93.9299 52.2943 94 51.8587 94H49.3729ZM50.603 92.9943H51.6058C51.9486 92.9943 52.1986 92.929 52.3558 92.7983C52.513 92.6657 52.5916 92.4896 52.5916 92.2699C52.5916 92.1089 52.5528 91.9669 52.4751 91.8438C52.3975 91.7206 52.2867 91.6241 52.1428 91.554C52.0007 91.4839 51.8312 91.4489 51.6342 91.4489H50.603V92.9943ZM50.603 90.6165H51.5149C51.6835 90.6165 51.8331 90.5871 51.9638 90.5284C52.0964 90.4678 52.2005 90.3826 52.2763 90.2727C52.3539 90.1629 52.3928 90.0312 52.3928 89.8778C52.3928 89.6676 52.3179 89.4981 52.1683 89.3693C52.0206 89.2405 51.8104 89.1761 51.5376 89.1761H50.603V90.6165ZM58.2557 88.1818H59.4858V91.9602C59.4858 92.3845 59.3845 92.7557 59.1818 93.0739C58.9811 93.392 58.6998 93.6402 58.3381 93.8182C57.9763 93.9943 57.5549 94.0824 57.0739 94.0824C56.5909 94.0824 56.1686 93.9943 55.8068 93.8182C55.4451 93.6402 55.1638 93.392 54.9631 93.0739C54.7623 92.7557 54.6619 92.3845 54.6619 91.9602V88.1818H55.892V91.8551C55.892 92.0767 55.9403 92.2737 56.0369 92.446C56.1354 92.6184 56.2737 92.7538 56.4517 92.8523C56.6297 92.9508 56.8371 93 57.0739 93C57.3125 93 57.5199 92.9508 57.696 92.8523C57.8741 92.7538 58.0114 92.6184 58.108 92.446C58.2064 92.2737 58.2557 92.0767 58.2557 91.8551V88.1818ZM65.3643 88.1818V94H64.3018L61.7706 90.3381H61.728V94H60.4979V88.1818H61.5774L64.0888 91.8409H64.1399V88.1818H65.3643ZM68.4432 94H66.3807V88.1818H68.4602C69.0455 88.1818 69.5492 88.2983 69.9716 88.5312C70.3939 88.7623 70.7188 89.0947 70.946 89.5284C71.1752 89.9621 71.2898 90.4811 71.2898 91.0852C71.2898 91.6913 71.1752 92.2121 70.946 92.6477C70.7188 93.0833 70.392 93.4176 69.9659 93.6506C69.5417 93.8835 69.0341 94 68.4432 94ZM67.6108 92.946H68.392C68.7557 92.946 69.0616 92.8816 69.3097 92.7528C69.5597 92.6222 69.7472 92.4205 69.8722 92.1477C69.9991 91.8731 70.0625 91.5189 70.0625 91.0852C70.0625 90.6553 69.9991 90.304 69.8722 90.0312C69.7472 89.7585 69.5606 89.5578 69.3125 89.429C69.0644 89.3002 68.7585 89.2358 68.3949 89.2358H67.6108V92.946ZM72.201 94V88.1818H73.4311V92.9858H75.9254V94H72.201ZM76.7401 94V88.1818H80.6605V89.196H77.9702V90.5824H80.4588V91.5966H77.9702V92.9858H80.6719V94H76.7401Z" fill="#FBFBFB"/>
<path opacity="0.3" d="M32 34C33.1046 34 34 33.1046 34 32C34 30.8954 33.1046 30 32 30C30.8954 30 30 30.8954 30 32C30 33.1046 30.8954 34 32 34Z" fill="#FBFBFB"/>
<path opacity="0.3" d="M96 34C97.1046 34 98 33.1046 98 32C98 30.8954 97.1046 30 96 30C94.8954 30 94 30.8954 94 32C94 33.1046 94.8954 34 96 34Z" fill="#FBFBFB"/>
<path opacity="0.3" d="M32 98C33.1046 98 34 97.1046 34 96C34 94.8954 33.1046 94 32 94C30.8954 94 30 94.8954 30 96C30 97.1046 30.8954 98 32 98Z" fill="#FBFBFB"/>
<path opacity="0.3" d="M96 98C97.1046 98 98 97.1046 98 96C98 94.8954 97.1046 94 96 94C94.8954 94 94 94.8954 94 96C94 97.1046 94.8954 98 96 98Z" fill="#FBFBFB"/>
<defs>
<linearGradient id="paint0_linear_3091_40535" x1="4" y1="4" x2="12004" y2="12004" gradientUnits="userSpaceOnUse">
<stop stop-color="#667EEA"/>
<stop offset="0.5" stop-color="#764BA2"/>
<stop offset="1" stop-color="#4FACFE"/>
</linearGradient>
<linearGradient id="paint1_linear_3091_40535" x1="22" y1="22" x2="8422" y2="8422" gradientUnits="userSpaceOnUse">
<stop stop-color="#667EEA"/>
<stop offset="0.5" stop-color="#764BA2"/>
<stop offset="1" stop-color="#4FACFE"/>
</linearGradient>
<linearGradient id="paint2_linear_3091_40535" x1="42" y1="45" x2="106.865" y2="434.189" gradientUnits="userSpaceOnUse">
<stop stop-color="#667EEA"/>
<stop offset="0.5" stop-color="#764BA2"/>
<stop offset="1" stop-color="#4FACFE"/>
</linearGradient>
<linearGradient id="paint3_linear_3091_40535" x1="42" y1="49" x2="96.3396" y2="338.811" gradientUnits="userSpaceOnUse">
<stop stop-color="#667EEA"/>
<stop offset="0.5" stop-color="#764BA2"/>
<stop offset="1" stop-color="#4FACFE"/>
</linearGradient>
<linearGradient id="paint4_linear_3091_40535" x1="42" y1="52" x2="86.0098" y2="345.399" gradientUnits="userSpaceOnUse">
<stop stop-color="#667EEA"/>
<stop offset="0.5" stop-color="#764BA2"/>
<stop offset="1" stop-color="#4FACFE"/>
</linearGradient>
<linearGradient id="paint5_linear_3091_40535" x1="42" y1="55" x2="112.588" y2="337.353" gradientUnits="userSpaceOnUse">
<stop stop-color="#667EEA"/>
<stop offset="0.5" stop-color="#764BA2"/>
<stop offset="1" stop-color="#4FACFE"/>
</linearGradient>
<linearGradient id="paint6_linear_3091_40535" x1="74" y1="45" x2="138.865" y2="434.189" gradientUnits="userSpaceOnUse">
<stop stop-color="#4FACFE"/>
<stop offset="1" stop-color="#00F2FE"/>
</linearGradient>
<linearGradient id="paint7_linear_3091_40535" x1="74" y1="49" x2="128.34" y2="338.811" gradientUnits="userSpaceOnUse">
<stop stop-color="#4FACFE"/>
<stop offset="1" stop-color="#00F2FE"/>
</linearGradient>
<linearGradient id="paint8_linear_3091_40535" x1="74" y1="52" x2="118.01" y2="345.399" gradientUnits="userSpaceOnUse">
<stop stop-color="#4FACFE"/>
<stop offset="1" stop-color="#00F2FE"/>
</linearGradient>
<linearGradient id="paint9_linear_3091_40535" x1="74" y1="55" x2="144.588" y2="337.353" gradientUnits="userSpaceOnUse">
<stop stop-color="#4FACFE"/>
<stop offset="1" stop-color="#00F2FE"/>
</linearGradient>
<linearGradient id="paint10_linear_3091_40535" x1="42" y1="83" x2="1052.08" y2="2923.86" gradientUnits="userSpaceOnUse">
<stop stop-color="#4FACFE"/>
<stop offset="1" stop-color="#00F2FE"/>
</linearGradient>
</defs>
</svg>
